<svg xmlns="http://www.w3.org/2000/svg" width="920" height="728" font-family="-apple-system,Segoe UI,Roboto,sans-serif" font-size="13">
<rect width="100%" height="100%" fill="#ffffff"/>
<text x="16" y="24" font-size="15" font-weight="600" fill="#0f172a">CPU while forwarding</text>
<text x="16" y="42" font-size="12" fill="#64748b">median of the repeats, all engine threads &#183; lower is better</text>
<text x="16" y="68" font-size="12" font-weight="600" fill="#334155">tcp-up-1</text>
<text x="142" y="70" text-anchor="end" font-size="12" fill="#475569">zeptun-hybrid</text>
<rect x="150" y="56" width="236" height="16" rx="3" fill="#2563eb"/>
<text x="394" y="70" font-size="12" fill="#0f172a">99.50 %</text>
<text x="142" y="94" text-anchor="end" font-size="12" fill="#475569">zeptun-userspace</text>
<rect x="150" y="80" width="222" height="16" rx="3" fill="#64748b"/>
<text x="380" y="94" font-size="12" fill="#0f172a">93.60 %</text>
<text x="142" y="118" text-anchor="end" font-size="12" fill="#475569">hev</text>
<rect x="150" y="104" width="209" height="16" rx="3" fill="#0f766e"/>
<text x="367" y="118" font-size="12" fill="#0f172a">88.30 %</text>
<text x="142" y="142" text-anchor="end" font-size="12" fill="#475569">singbox-gvisor</text>
<rect x="150" y="128" width="390" height="16" rx="3" fill="#b45309"/>
<text x="548" y="142" font-size="12" fill="#0f172a">164 %</text>
<text x="142" y="166" text-anchor="end" font-size="12" fill="#475569">singbox-system</text>
<rect x="150" y="152" width="346" height="16" rx="3" fill="#7c3aed"/>
<text x="504" y="166" font-size="12" fill="#0f172a">146 %</text>
<text x="142" y="190" text-anchor="end" font-size="12" fill="#475569">tun2socks</text>
<rect x="150" y="176" width="492" height="16" rx="3" fill="#be123c"/>
<text x="650" y="190" font-size="12" fill="#0f172a">207 %</text>
<text x="16" y="230" font-size="12" font-weight="600" fill="#334155">tcp-up-10</text>
<text x="142" y="232" text-anchor="end" font-size="12" fill="#475569">zeptun-hybrid</text>
<rect x="150" y="218" width="445" height="16" rx="3" fill="#2563eb"/>
<text x="603" y="232" font-size="12" fill="#0f172a">187 %</text>
<text x="142" y="256" text-anchor="end" font-size="12" fill="#475569">zeptun-userspace</text>
<rect x="150" y="242" width="250" height="16" rx="3" fill="#64748b"/>
<text x="408" y="256" font-size="12" fill="#0f172a">106 %</text>
<text x="142" y="280" text-anchor="end" font-size="12" fill="#475569">hev</text>
<rect x="150" y="266" width="508" height="16" rx="3" fill="#0f766e"/>
<text x="666" y="280" font-size="12" fill="#0f172a">214 %</text>
<text x="142" y="304" text-anchor="end" font-size="12" fill="#475569">singbox-gvisor</text>
<rect x="150" y="290" width="514" height="16" rx="3" fill="#b45309"/>
<text x="672" y="304" font-size="12" fill="#0f172a">216 %</text>
<text x="142" y="328" text-anchor="end" font-size="12" fill="#475569">singbox-system</text>
<rect x="150" y="314" width="389" height="16" rx="3" fill="#7c3aed"/>
<text x="547" y="328" font-size="12" fill="#0f172a">164 %</text>
<text x="142" y="352" text-anchor="end" font-size="12" fill="#475569">tun2socks</text>
<rect x="150" y="338" width="680" height="16" rx="3" fill="#be123c"/>
<text x="838" y="352" font-size="12" fill="#0f172a">286 %</text>
<text x="16" y="392" font-size="12" font-weight="600" fill="#334155">tcp-down-1</text>
<text x="142" y="394" text-anchor="end" font-size="12" fill="#475569">zeptun-hybrid</text>
<rect x="150" y="380" width="236" height="16" rx="3" fill="#2563eb"/>
<text x="394" y="394" font-size="12" fill="#0f172a">99.60 %</text>
<text x="142" y="418" text-anchor="end" font-size="12" fill="#475569">zeptun-userspace</text>
<rect x="150" y="404" width="236" height="16" rx="3" fill="#64748b"/>
<text x="394" y="418" font-size="12" fill="#0f172a">99.50 %</text>
<text x="142" y="442" text-anchor="end" font-size="12" fill="#475569">hev</text>
<rect x="150" y="428" width="227" height="16" rx="3" fill="#0f766e"/>
<text x="385" y="442" font-size="12" fill="#0f172a">95.80 %</text>
<text x="142" y="466" text-anchor="end" font-size="12" fill="#475569">singbox-gvisor</text>
<rect x="150" y="452" width="426" height="16" rx="3" fill="#b45309"/>
<text x="584" y="466" font-size="12" fill="#0f172a">180 %</text>
<text x="142" y="490" text-anchor="end" font-size="12" fill="#475569">singbox-system</text>
<rect x="150" y="476" width="340" height="16" rx="3" fill="#7c3aed"/>
<text x="498" y="490" font-size="12" fill="#0f172a">143 %</text>
<text x="142" y="514" text-anchor="end" font-size="12" fill="#475569">tun2socks</text>
<rect x="150" y="500" width="384" height="16" rx="3" fill="#be123c"/>
<text x="542" y="514" font-size="12" fill="#0f172a">162 %</text>
<text x="16" y="554" font-size="12" font-weight="600" fill="#334155">tcp-down-10</text>
<text x="142" y="556" text-anchor="end" font-size="12" fill="#475569">zeptun-hybrid</text>
<rect x="150" y="542" width="470" height="16" rx="3" fill="#2563eb"/>
<text x="628" y="556" font-size="12" fill="#0f172a">198 %</text>
<text x="142" y="580" text-anchor="end" font-size="12" fill="#475569">zeptun-userspace</text>
<rect x="150" y="566" width="234" height="16" rx="3" fill="#64748b"/>
<text x="392" y="580" font-size="12" fill="#0f172a">98.80 %</text>
<text x="142" y="604" text-anchor="end" font-size="12" fill="#475569">hev</text>
<rect x="150" y="590" width="491" height="16" rx="3" fill="#0f766e"/>
<text x="649" y="604" font-size="12" fill="#0f172a">207 %</text>
<text x="142" y="628" text-anchor="end" font-size="12" fill="#475569">singbox-gvisor</text>
<rect x="150" y="614" width="610" height="16" rx="3" fill="#b45309"/>
<text x="768" y="628" font-size="12" fill="#0f172a">257 %</text>
<text x="142" y="652" text-anchor="end" font-size="12" fill="#475569">singbox-system</text>
<rect x="150" y="638" width="309" height="16" rx="3" fill="#7c3aed"/>
<text x="467" y="652" font-size="12" fill="#0f172a">130 %</text>
<text x="142" y="676" text-anchor="end" font-size="12" fill="#475569">tun2socks</text>
<rect x="150" y="662" width="630" height="16" rx="3" fill="#be123c"/>
<text x="788" y="676" font-size="12" fill="#0f172a">265 %</text>
</svg>
