<svg xmlns="http://www.w3.org/2000/svg" width="920" height="566" font-family="-apple-system,Segoe UI,Roboto,sans-serif" font-size="13">
<rect width="100%" height="100%" fill="#ffffff"/>
<text x="16" y="24" font-size="15" font-weight="600" fill="#0f172a">Request/response latency, 99th percentile</text>
<text x="16" y="42" font-size="12" fill="#64748b">median of the repeats &#183; lower is better</text>
<text x="16" y="68" font-size="12" font-weight="600" fill="#334155">rr</text>
<text x="142" y="70" text-anchor="end" font-size="12" fill="#475569">zeptun-hybrid</text>
<rect x="150" y="56" width="89" height="16" rx="3" fill="#2563eb"/>
<text x="247" y="70" font-size="12" fill="#0f172a">197 us</text>
<text x="142" y="94" text-anchor="end" font-size="12" fill="#475569">zeptun-userspace</text>
<rect x="150" y="80" width="80" height="16" rx="3" fill="#64748b"/>
<text x="238" y="94" font-size="12" fill="#0f172a">177 us</text>
<text x="142" y="118" text-anchor="end" font-size="12" fill="#475569">hev</text>
<rect x="150" y="104" width="84" height="16" rx="3" fill="#0f766e"/>
<text x="242" y="118" font-size="12" fill="#0f172a">187 us</text>
<text x="142" y="142" text-anchor="end" font-size="12" fill="#475569">singbox-gvisor</text>
<rect x="150" y="128" width="174" height="16" rx="3" fill="#b45309"/>
<text x="332" y="142" font-size="12" fill="#0f172a">386 us</text>
<text x="142" y="166" text-anchor="end" font-size="12" fill="#475569">singbox-system</text>
<rect x="150" y="152" width="96" height="16" rx="3" fill="#7c3aed"/>
<text x="254" y="166" font-size="12" fill="#0f172a">213 us</text>
<text x="142" y="190" text-anchor="end" font-size="12" fill="#475569">tun2socks</text>
<rect x="150" y="176" width="167" height="16" rx="3" fill="#be123c"/>
<text x="325" y="190" font-size="12" fill="#0f172a">370 us</text>
<text x="16" y="230" font-size="12" font-weight="600" fill="#334155">rr-8x1k</text>
<text x="142" y="232" text-anchor="end" font-size="12" fill="#475569">zeptun-hybrid</text>
<rect x="150" y="218" width="430" height="16" rx="3" fill="#2563eb"/>
<text x="588" y="232" font-size="12" fill="#0f172a">952 us</text>
<text x="142" y="256" text-anchor="end" font-size="12" fill="#475569">zeptun-userspace</text>
<rect x="150" y="242" width="345" height="16" rx="3" fill="#64748b"/>
<text x="503" y="256" font-size="12" fill="#0f172a">764 us</text>
<text x="142" y="280" text-anchor="end" font-size="12" fill="#475569">hev</text>
<rect x="150" y="266" width="435" height="16" rx="3" fill="#0f766e"/>
<text x="593" y="280" font-size="12" fill="#0f172a">964 us</text>
<text x="142" y="304" text-anchor="end" font-size="12" fill="#475569">singbox-gvisor</text>
<rect x="150" y="290" width="680" height="16" rx="3" fill="#b45309"/>
<text x="838" y="304" font-size="12" fill="#0f172a">1504 us</text>
<text x="142" y="328" text-anchor="end" font-size="12" fill="#475569">singbox-system</text>
<rect x="150" y="314" width="578" height="16" rx="3" fill="#7c3aed"/>
<text x="736" y="328" font-size="12" fill="#0f172a">1280 us</text>
<text x="142" y="352" text-anchor="end" font-size="12" fill="#475569">tun2socks</text>
<rect x="150" y="338" width="658" height="16" rx="3" fill="#be123c"/>
<text x="816" y="352" font-size="12" fill="#0f172a">1456 us</text>
<text x="16" y="392" font-size="12" font-weight="600" fill="#334155">crr</text>
<text x="142" y="394" text-anchor="end" font-size="12" fill="#475569">zeptun-hybrid</text>
<rect x="150" y="380" width="437" height="16" rx="3" fill="#2563eb"/>
<text x="595" y="394" font-size="12" fill="#0f172a">968 us</text>
<text x="142" y="418" text-anchor="end" font-size="12" fill="#475569">zeptun-userspace</text>
<rect x="150" y="404" width="309" height="16" rx="3" fill="#64748b"/>
<text x="467" y="418" font-size="12" fill="#0f172a">684 us</text>
<text x="142" y="442" text-anchor="end" font-size="12" fill="#475569">hev</text>
<rect x="150" y="428" width="359" height="16" rx="3" fill="#0f766e"/>
<text x="517" y="442" font-size="12" fill="#0f172a">796 us</text>
<text x="142" y="466" text-anchor="end" font-size="12" fill="#475569">singbox-gvisor</text>
<rect x="150" y="452" width="647" height="16" rx="3" fill="#b45309"/>
<text x="805" y="466" font-size="12" fill="#0f172a">1432 us</text>
<text x="142" y="490" text-anchor="end" font-size="12" fill="#475569">singbox-system</text>
<rect x="150" y="476" width="495" height="16" rx="3" fill="#7c3aed"/>
<text x="653" y="490" font-size="12" fill="#0f172a">1096 us</text>
<text x="142" y="514" text-anchor="end" font-size="12" fill="#475569">tun2socks</text>
<rect x="150" y="500" width="582" height="16" rx="3" fill="#be123c"/>
<text x="740" y="514" font-size="12" fill="#0f172a">1288 us</text>
</svg>
