<svg xmlns="http://www.w3.org/2000/svg" width="920" height="808" font-family="-apple-system,Segoe UI,Roboto,sans-serif" font-size="13">
<rect width="100%" height="100%" fill="#ffffff"/>
<text x="16" y="24" font-size="15" font-weight="600" fill="#0f172a">Throughput through a SOCKS5 proxy</text>
<text x="16" y="42" font-size="12" fill="#64748b">median of the repeats &#183; higher is better</text>
<text x="16" y="68" font-size="12" font-weight="600" fill="#334155">tcp-up-1</text>
<text x="142" y="90" text-anchor="end" font-size="12" fill="#475569">zeptun-hybrid</text>
<rect x="150" y="76" width="335" height="16" rx="3" fill="#2563eb"/>
<text x="493" y="90" font-size="12" fill="#0f172a">11.32 Gbit/s</text>
<text x="142" y="114" text-anchor="end" font-size="12" fill="#475569">zeptun-userspace</text>
<rect x="150" y="100" width="558" height="16" rx="3" fill="#64748b"/>
<text x="716" y="114" font-size="12" fill="#0f172a">18.87 Gbit/s</text>
<text x="142" y="138" text-anchor="end" font-size="12" fill="#475569">hev</text>
<rect x="150" y="124" width="175" height="16" rx="3" fill="#0f766e"/>
<text x="333" y="138" font-size="12" fill="#0f172a">5.94 Gbit/s</text>
<text x="142" y="162" text-anchor="end" font-size="12" fill="#475569">singbox-gvisor</text>
<rect x="150" y="148" width="275" height="16" rx="3" fill="#b45309"/>
<text x="433" y="162" font-size="12" fill="#0f172a">9.30 Gbit/s</text>
<text x="142" y="186" text-anchor="end" font-size="12" fill="#475569">singbox-system</text>
<rect x="150" y="172" width="177" height="16" rx="3" fill="#7c3aed"/>
<text x="335" y="186" font-size="12" fill="#0f172a">5.99 Gbit/s</text>
<text x="142" y="210" text-anchor="end" font-size="12" fill="#475569">tun2socks</text>
<rect x="150" y="196" width="153" height="16" rx="3" fill="#be123c"/>
<text x="311" y="210" font-size="12" fill="#0f172a">5.19 Gbit/s</text>
<text x="16" y="250" font-size="12" font-weight="600" fill="#334155">tcp-up-10</text>
<text x="142" y="272" text-anchor="end" font-size="12" fill="#475569">zeptun-hybrid</text>
<rect x="150" y="258" width="611" height="16" rx="3" fill="#2563eb"/>
<text x="769" y="272" font-size="12" fill="#0f172a">20.65 Gbit/s</text>
<text x="142" y="296" text-anchor="end" font-size="12" fill="#475569">zeptun-userspace</text>
<rect x="150" y="282" width="671" height="16" rx="3" fill="#64748b"/>
<text x="829" y="296" font-size="12" fill="#0f172a">22.68 Gbit/s</text>
<text x="142" y="320" text-anchor="end" font-size="12" fill="#475569">hev</text>
<rect x="150" y="306" width="399" height="16" rx="3" fill="#0f766e"/>
<text x="557" y="320" font-size="12" fill="#0f172a">13.47 Gbit/s</text>
<text x="142" y="344" text-anchor="end" font-size="12" fill="#475569">singbox-gvisor</text>
<rect x="150" y="330" width="454" height="16" rx="3" fill="#b45309"/>
<text x="612" y="344" font-size="12" fill="#0f172a">15.33 Gbit/s</text>
<text x="142" y="368" text-anchor="end" font-size="12" fill="#475569">singbox-system</text>
<rect x="150" y="354" width="137" height="16" rx="3" fill="#7c3aed"/>
<text x="295" y="368" font-size="12" fill="#0f172a">4.62 Gbit/s</text>
<text x="142" y="392" text-anchor="end" font-size="12" fill="#475569">tun2socks</text>
<rect x="150" y="378" width="241" height="16" rx="3" fill="#be123c"/>
<text x="399" y="392" font-size="12" fill="#0f172a">8.15 Gbit/s</text>
<text x="16" y="432" font-size="12" font-weight="600" fill="#334155">tcp-down-1</text>
<text x="142" y="454" text-anchor="end" font-size="12" fill="#475569">zeptun-hybrid</text>
<rect x="150" y="440" width="372" height="16" rx="3" fill="#2563eb"/>
<text x="530" y="454" font-size="12" fill="#0f172a">12.59 Gbit/s</text>
<text x="142" y="478" text-anchor="end" font-size="12" fill="#475569">zeptun-userspace</text>
<rect x="150" y="464" width="344" height="16" rx="3" fill="#64748b"/>
<text x="502" y="478" font-size="12" fill="#0f172a">11.64 Gbit/s</text>
<text x="142" y="502" text-anchor="end" font-size="12" fill="#475569">hev</text>
<rect x="150" y="488" width="202" height="16" rx="3" fill="#0f766e"/>
<text x="360" y="502" font-size="12" fill="#0f172a">6.82 Gbit/s</text>
<text x="142" y="526" text-anchor="end" font-size="12" fill="#475569">singbox-gvisor</text>
<rect x="150" y="512" width="96" height="16" rx="3" fill="#b45309"/>
<text x="254" y="526" font-size="12" fill="#0f172a">3.25 Gbit/s</text>
<text x="142" y="550" text-anchor="end" font-size="12" fill="#475569">singbox-system</text>
<rect x="150" y="536" width="159" height="16" rx="3" fill="#7c3aed"/>
<text x="317" y="550" font-size="12" fill="#0f172a">5.37 Gbit/s</text>
<text x="142" y="574" text-anchor="end" font-size="12" fill="#475569">tun2socks</text>
<rect x="150" y="560" width="80" height="16" rx="3" fill="#be123c"/>
<text x="238" y="574" font-size="12" fill="#0f172a">2.71 Gbit/s</text>
<text x="16" y="614" font-size="12" font-weight="600" fill="#334155">tcp-down-10</text>
<text x="142" y="636" text-anchor="end" font-size="12" fill="#475569">zeptun-hybrid</text>
<rect x="150" y="622" width="680" height="16" rx="3" fill="#2563eb"/>
<text x="838" y="636" font-size="12" fill="#0f172a">22.95 Gbit/s</text>
<text x="142" y="660" text-anchor="end" font-size="12" fill="#475569">zeptun-userspace</text>
<rect x="150" y="646" width="594" height="16" rx="3" fill="#64748b"/>
<text x="752" y="660" font-size="12" fill="#0f172a">20.07 Gbit/s</text>
<text x="142" y="684" text-anchor="end" font-size="12" fill="#475569">hev</text>
<rect x="150" y="670" width="329" height="16" rx="3" fill="#0f766e"/>
<text x="487" y="684" font-size="12" fill="#0f172a">11.13 Gbit/s</text>
<text x="142" y="708" text-anchor="end" font-size="12" fill="#475569">singbox-gvisor</text>
<rect x="150" y="694" width="176" height="16" rx="3" fill="#b45309"/>
<text x="334" y="708" font-size="12" fill="#0f172a">5.95 Gbit/s</text>
<text x="142" y="732" text-anchor="end" font-size="12" fill="#475569">singbox-system</text>
<rect x="150" y="718" width="115" height="16" rx="3" fill="#7c3aed"/>
<text x="273" y="732" font-size="12" fill="#0f172a">3.89 Gbit/s</text>
<text x="142" y="756" text-anchor="end" font-size="12" fill="#475569">tun2socks</text>
<rect x="150" y="742" width="186" height="16" rx="3" fill="#be123c"/>
<text x="344" y="756" font-size="12" fill="#0f172a">6.29 Gbit/s</text>
</svg>
